<?xml version="1.0" standalone="no"?>
<!DOCTYPE svg PUBLIC "-//W3C//DTD SVG 20010904//EN"
 "http://www.w3.org/TR/2001/REC-SVG-20010904/DTD/svg10.dtd">
<svg version="1.0" xmlns="http://www.w3.org/2000/svg"
 width="130.000000pt" height="130.000000pt" viewBox="0 0 130.000000 130.000000"
 preserveAspectRatio="xMidYMid meet">

<g transform="translate(0.000000,130.000000) scale(0.100000,-0.100000)"
fill="#000000" stroke="none">
<path d="M0 650 l0 -650 650 0 650 0 0 650 0 650 -650 0 -650 0 0 -650z m554
497 c3 -18 16 -72 30 -122 19 -71 29 -93 47 -102 33 -18 70 -16 84 3 10 14 13
14 27 -8 16 -24 15 -24 -19 -26 -19 -2 -45 -9 -58 -18 -26 -17 -26 -47 3 -158
l17 -69 52 -17 c76 -25 126 -63 159 -123 58 -106 25 -269 -66 -332 -37 -25
-40 -32 -40 -74 l-1 -46 -22 40 c-15 28 -30 41 -47 43 -64 6 -127 33 -163 68
-52 51 -69 87 -75 160 -4 52 0 70 23 123 17 37 43 74 64 92 35 29 36 29 45 9
7 -16 4 -27 -16 -48 -47 -50 -60 -89 -56 -162 4 -80 39 -140 99 -171 44 -22
94 -26 86 -6 -2 6 -19 73 -37 147 -18 74 -40 164 -49 199 l-16 64 -68 25
c-124 46 -183 127 -180 249 2 65 49 159 95 191 l33 22 8 -25 c7 -21 3 -30 -26
-58 -41 -38 -62 -103 -51 -156 4 -20 8 -42 10 -49 10 -51 79 -114 150 -136 20
-6 20 -6 4 56 -29 108 -34 117 -72 113 -18 -2 -43 -7 -55 -10 -19 -6 -23 -4
-23 15 0 18 4 21 22 16 30 -7 88 32 88 59 0 11 -7 45 -15 75 -19 69 -36 171
-29 181 10 17 32 -3 38 -34z m134 -47 c52 -27 75 -49 103 -95 21 -34 24 -53
24 -130 0 -100 -17 -145 -73 -199 -50 -47 -72 -9 -28 48 57 75 71 155 42 236
-15 42 -89 98 -137 104 -26 2 -35 9 -40 30 -7 25 -6 26 32 26 22 0 56 -9 77
-20z"/>
<path d="M700 575 c0 -4 13 -59 29 -123 15 -64 34 -143 40 -174 13 -61 16 -65
42 -45 38 29 59 81 59 147 0 81 -21 125 -75 161 -39 25 -95 45 -95 34z"/>
</g>
</svg>
